<?xml version="1.0" encoding="UTF-8"?>
<!DOCTYPE svg PUBLIC "-//W3C//DTD SVG 1.1//EN" "http://www.w3.org/Graphics/SVG/1.1/DTD/svg11.dtd">
<!-- Creator: CorelDRAW X7 -->
<svg xmlns="http://www.w3.org/2000/svg" xml:space="preserve" width="8.26772in" height="11.6929in" version="1.1" style="shape-rendering:geometricPrecision; text-rendering:geometricPrecision; image-rendering:optimizeQuality; fill-rule:evenodd; clip-rule:evenodd"
viewBox="0 0 8268 11693"
 xmlns:xlink="http://www.w3.org/1999/xlink"
 enable-background="new 0 0 250 250">
 <defs>
  <style type="text/css">
   <![CDATA[
    .fil0 {fill:#FEFEFE}
    .fil1 {fill:#F47920}
   ]]>
  </style>
 </defs>
 <g id="Layer_x0020_1">
  <metadata id="CorelCorpID_0Corel-Layer"/>
  <rect class="fil0" x="2356" y="4069" width="3556" height="3556"/>
  <g id="_2287095891664">
   <polygon class="fil1" points="4891,5034 3067,5522 3377,6681 5201,6191 "/>
   <path class="fil1" d="M5486 5165l-152 -562 -2862 765 152 563c162,-44 330,53 373,215 43,162 -53,330 -215,373l154 571 2860 -766 -154 -570c-162,43 -331,-53 -374,-215 -41,-164 54,-331 218,-374zm-183 1086l-1984 531 -355 -1319 1984 -532 355 1320z"/>
  </g>
  <polygon class="fil0" points="3702,5538 4174,5828 4631,5713 4159,5423 "/>
  <polygon class="fil0" points="4192,5875 3902,6361 4355,6252 4645,5765 "/>
  <polygon class="fil0" points="3709,5628 3869,6274 4112,5877 "/>
 </g>
</svg>
